<svg width="990" height="990" viewBox="0 0 990 990" fill="none" xmlns="http://www.w3.org/2000/svg">
<path d="M348.5 479.63V673.525C348.5 695.341 330.815 713.025 309 713.025C287.185 713.025 269.5 695.341 269.5 673.525V430.842L348.5 479.63ZM472.5 556.21V673.525C472.5 695.341 454.815 713.025 433 713.025C411.185 713.025 393.5 695.341 393.5 673.525V507.421L472.5 556.21ZM558.509 609.327L558.516 609.331C558.52 609.334 558.525 609.337 558.532 609.342C558.539 609.346 558.549 609.351 558.559 609.357C558.595 609.38 558.667 609.425 558.752 609.477V609.478L596.5 632.54V673.525C596.5 695.341 578.815 713.025 557 713.025C535.185 713.025 517.5 695.341 517.5 673.525V584.001L558.509 609.327ZM665.225 674.528C665.684 674.809 666.151 675.085 666.625 675.356V675.357C678.181 681.991 692.557 691.803 709.855 700.494C702.647 708.204 692.388 713.025 681 713.025C659.185 713.025 641.5 695.341 641.5 673.525V660.033L665.225 674.528ZM716.406 589.781L720.125 591.927C720.25 591.999 720.375 592.072 720.5 592.145V673.525C720.5 676.748 720.111 679.879 719.383 682.878C703.551 674.9 689.59 665.478 676.582 658.012C676.27 657.832 675.96 657.649 675.652 657.461L641.5 636.595V544.016L716.406 589.781ZM596.5 516.431V609.102L569.18 592.41C569.126 592.377 569.072 592.344 569.019 592.311L517.5 560.493V467.642L596.5 516.431ZM681 276.974C702.815 276.974 720.5 294.659 720.5 316.474V568.845L641.5 520.579V316.474C641.5 294.659 659.185 276.974 681 276.974ZM472.5 439.851V532.702L393.5 483.914V391.062L472.5 439.851ZM557 276.974C578.815 276.974 596.5 294.659 596.5 316.474V492.924L517.5 444.135V316.474C517.5 294.659 535.185 276.974 557 276.974ZM348.5 363.271V456.123L269.5 407.334V316.474C269.5 315.816 269.517 315.162 269.549 314.513L348.5 363.271ZM433 276.974C454.815 276.974 472.5 294.659 472.5 316.474V416.344L393.5 367.556V316.474C393.5 294.659 411.185 276.974 433 276.974ZM309 276.974C330.815 276.974 348.5 294.659 348.5 316.474V339.765L275.893 294.924C282.941 284.117 295.136 276.974 309 276.974Z" fill="#FEA86B"/>
<path d="M251.447 303.335C232.886 291.872 208.547 297.626 197.085 316.187C185.622 334.748 191.375 359.088 209.936 370.55L569.018 592.311C569.072 592.344 569.125 592.378 569.179 592.411L675.652 657.462C675.959 657.649 676.269 657.833 676.582 658.012C704.736 674.173 737.351 699.499 783.75 699.5C827.046 699.5 868.57 682.3 899.185 651.685C929.801 621.07 947.001 579.546 947.001 536.25V495L868.001 536.25C868.001 558.594 859.124 580.024 843.324 595.824C827.524 611.624 806.094 620.5 783.75 620.5C764.585 620.499 757.098 613.164 716.406 589.782L610.443 525.043L251.447 303.335Z" fill="url(#paint0_linear_154_154)"/>
<path d="M907.5 536.25V495C907.5 402.076 876.125 311.875 818.458 239.009C760.791 166.144 680.211 114.884 589.773 93.5348C499.335 72.1853 404.338 81.997 320.173 121.38C236.008 160.764 167.606 227.411 126.049 310.524C84.4921 393.638 72.2154 488.348 91.2079 579.31C110.2 670.272 159.349 752.157 230.692 811.698C302.034 871.238 391.39 904.946 484.282 907.361C577.175 909.775 668.161 880.754 742.5 825" stroke="#F343FD" stroke-width="79" stroke-linecap="round" stroke-linejoin="round"/>
<defs>
<linearGradient id="paint0_linear_154_154" x1="784.508" y1="594.684" x2="872.955" y2="592.719" gradientUnits="userSpaceOnUse">
<stop stop-color="#FEA86B"/>
<stop offset="1" stop-color="#F343FD"/>
</linearGradient>
</defs>
</svg>
